<?xml version="1.0" encoding="UTF-8"?>
<svg id="Layer_2" data-name="Layer 2" xmlns="http://www.w3.org/2000/svg" viewBox="0 0 278.19 500">
  <defs>
    <style>
      .cls-1 {
        fill: #755893;
      }
    </style>
  </defs>
  <g id="Logo">
    <g>
      <path class="cls-1" d="M80.92,80.92v46.38L0,208.23V0h0c44.69,0,80.92,36.23,80.92,80.92Z"/>
      <path class="cls-1" d="M80.92,372.65v127.3h0c-44.69,0-80.92-36.23-80.92-80.92v-127.3l80.92,80.92Z"/>
      <path class="cls-1" d="M257.7,393.23c27.34,27.34,27.34,71.74-.06,99.08l-7.63,7.69-78.14-78.14L40.47,290.52,0,250l40.46-40.52L171.87,78.14l28.57-28.57L250.01,0l7.63,7.69c27.4,27.34,27.4,71.74.06,99.08L114.47,250l143.23,143.23Z"/>
    </g>
  </g>
</svg>