<svg xmlns="http://www.w3.org/2000/svg" viewBox="0 0 492.96 138.29"><defs><style>.cls-1{fill:#755893;}.cls-2{fill:#ccc;}.cls-3{fill:#989898;}</style></defs><title>Asset 11</title><g id="Layer_2" data-name="Layer 2"><g id="Logo"><g id="Logo-2" data-name="Logo"><path class="cls-1" d="M22.38,22.38V35.21L0,57.59V0H0A22.38,22.38,0,0,1,22.38,22.38Z"/><path class="cls-1" d="M22.38,103.07v35.21h0A22.38,22.38,0,0,1,0,115.9V80.69Z"/><path class="cls-1" d="M71.28,108.76a19.38,19.38,0,0,1,0,27.41l-2.11,2.12L47.54,116.68,11.19,80.35,0,69.15,11.19,57.94,47.54,21.61l7.9-7.9L69.15,0l2.11,2.13a19.37,19.37,0,0,1,0,27.4L31.66,69.15Z"/><polygon class="cls-2" points="136.79 34.77 129.52 34.77 119.62 48.3 116.81 48.3 116.81 34.77 110.78 34.77 110.78 66.99 116.81 66.99 116.81 53.59 119.99 53.59 129.89 66.99 137.57 66.99 125.05 50.56 136.79 34.77"/><rect class="cls-2" x="144.52" y="34.77" width="6.03" height="32.22"/><polygon class="cls-2" points="183.6 55.57 183.51 55.57 165.74 34.77 160.49 34.77 160.49 66.99 166.48 66.99 166.48 45.26 166.57 45.26 184.98 66.99 189.58 66.99 189.58 34.77 183.6 34.77 183.6 55.57"/><path class="cls-2" d="M215.69,34.77h-7L196.16,67h6.28l2.39-6.41h14.5L221.67,67h6.63ZM206.8,55.3l5.28-14.09h.14l5.17,14.09Z"/><polygon class="cls-2" points="257.98 55.57 257.89 55.57 240.12 34.77 234.87 34.77 234.87 66.99 240.85 66.99 240.85 45.26 240.95 45.26 259.36 66.99 263.96 66.99 263.96 34.77 257.98 34.77 257.98 55.57"/><path class="cls-2" d="M303.27,54.05H312v7.37a24.74,24.74,0,0,1-5.75.74,16.46,16.46,0,0,1-6.77-1.27,9.18,9.18,0,0,1-4.28-3.77,12.21,12.21,0,0,1-1.47-6.24,11.29,11.29,0,0,1,1.54-6.19,9.41,9.41,0,0,1,4.24-3.61,15,15,0,0,1,6.19-1.2,24.85,24.85,0,0,1,3.43.25c1.21.17,2.46.39,3.75.67l1.75.37,1.06-4.65-1.48-.6a27.14,27.14,0,0,0-4.32-1.2,24.38,24.38,0,0,0-4.38-.41,22.44,22.44,0,0,0-7,1.06,16.47,16.47,0,0,0-5.73,3.15A14.36,14.36,0,0,0,289,43.7a17.28,17.28,0,0,0-1.38,7.13,17.17,17.17,0,0,0,2.21,8.89,14.57,14.57,0,0,0,6.35,5.73,22.84,22.84,0,0,0,10,2,23.47,23.47,0,0,0,4.24-.39A30.27,30.27,0,0,0,314.45,66,26.75,26.75,0,0,0,318,64.5V48.76H303.27Z"/><polygon class="cls-2" points="349.11 47.75 332.86 47.75 332.86 34.77 326.83 34.77 326.83 66.99 332.86 66.99 332.86 53.04 349.11 53.04 349.11 66.99 355.14 66.99 355.14 34.77 349.11 34.77 349.11 47.75"/><path class="cls-2" d="M389.94,52.85a7.28,7.28,0,0,0-3.69-2.53v0a5.86,5.86,0,0,0,3.1-3,10.65,10.65,0,0,0,.78-4A8.6,8.6,0,0,0,389,38.9a7.58,7.58,0,0,0-3.28-3,12.06,12.06,0,0,0-5.53-1.11H365.07V67h15.65a12.54,12.54,0,0,0,5.82-1.21,8.14,8.14,0,0,0,3.61-3.34,10,10,0,0,0,1.27-5.06A7.26,7.26,0,0,0,389.94,52.85Zm-18.83-12.8h8.75a5,5,0,0,1,3.42,1,3.69,3.69,0,0,1,1.08,2.88,4,4,0,0,1-1,3,4.34,4.34,0,0,1-3.13,1h-9.1ZM384,60.61a5.19,5.19,0,0,1-3.64,1.08h-9.29V53.17h9.59a5,5,0,0,1,3.34,1,3.7,3.7,0,0,1,1.21,3A4.28,4.28,0,0,1,384,60.61Z"/><path class="cls-2" d="M414.75,34.77h-7L395.22,67h6.28l2.39-6.41h14.5L420.73,67h6.63ZM405.89,55.3l5.28-14.09h.13l5.15,14.09Z"/><path class="cls-2" d="M452.1,50.33A27.06,27.06,0,0,0,446,48.07c-2.15-.61-3.77-1.12-4.88-1.52a5.6,5.6,0,0,1-2.23-1.26,2.51,2.51,0,0,1-.57-1.68,3.25,3.25,0,0,1,1.72-3,10.54,10.54,0,0,1,5.13-1,28.62,28.62,0,0,1,3.41.21c1.17.14,2.27.28,3.31.44l2.72.37.87-4.56-1.93-.51a36.41,36.41,0,0,0-4.39-.92,31,31,0,0,0-4.31-.32,19.94,19.94,0,0,0-6.42,1,9.65,9.65,0,0,0-4.55,3,8.13,8.13,0,0,0-1.68,5.36,8.24,8.24,0,0,0,1,4.28,7.68,7.68,0,0,0,3.27,2.81,37.34,37.34,0,0,0,6.15,2.3,35.93,35.93,0,0,1,4.69,1.66,5.44,5.44,0,0,1,2.1,1.49A3.06,3.06,0,0,1,450,58,3.4,3.4,0,0,1,448.32,61a9.29,9.29,0,0,1-4.9,1c-1.17,0-2.47-.07-3.91-.2s-2.73-.32-3.87-.53l-3.31-.56-1,4.61,2.76.78a41.36,41.36,0,0,0,4.37.92,31.68,31.68,0,0,0,5,.37A18.52,18.52,0,0,0,450,66.37a10.07,10.07,0,0,0,4.6-3.32,9.13,9.13,0,0,0,1.7-5.68,7.26,7.26,0,0,0-4.16-7Z"/><polygon class="cls-2" points="486.82 34.77 486.82 47.75 470.57 47.75 470.57 34.77 464.54 34.77 464.54 66.99 470.57 66.99 470.57 53.04 486.82 53.04 486.82 66.99 492.85 66.99 492.85 34.77 486.82 34.77"/><path class="cls-3" d="M119.62,96.44a14.53,14.53,0,0,0-2.83-1c-1.08-.32-1.91-.59-2.48-.81a2.7,2.7,0,0,1-1.17-.73,1.62,1.62,0,0,1-.32-1,2,2,0,0,1,1-1.84,5.09,5.09,0,0,1,2.77-.64,12.51,12.51,0,0,1,1.71.12c.58.08,1.16.17,1.73.29l1,.17.28-1.36-.76-.21a16.36,16.36,0,0,0-2-.43,12.13,12.13,0,0,0-2-.16,8.72,8.72,0,0,0-2.78.42,4.27,4.27,0,0,0-2,1.31,3.63,3.63,0,0,0-.73,2.35,3.26,3.26,0,0,0,.47,1.82A3.6,3.6,0,0,0,113,95.89a20,20,0,0,0,2.84,1,15.84,15.84,0,0,1,2.44.88,3,3,0,0,1,1.15.88,1.85,1.85,0,0,1,.32,1.1,2.22,2.22,0,0,1-1,1.93,4.87,4.87,0,0,1-2.79.67,18.16,18.16,0,0,1-1.82-.11,14.57,14.57,0,0,1-1.83-.3L111,101.7l-.31,1.39,1.26.36a13.16,13.16,0,0,0,1.8.37A14.56,14.56,0,0,0,116,104a8.38,8.38,0,0,0,2.84-.45,4.29,4.29,0,0,0,2-1.43,3.93,3.93,0,0,0,.75-2.47,3.45,3.45,0,0,0-.48-1.88A3.74,3.74,0,0,0,119.62,96.44Z"/><path class="cls-3" d="M144.84,92.43a6.86,6.86,0,0,0-2.59-2.7,7.68,7.68,0,0,0-3.88-1,7.51,7.51,0,0,0-3.82,1,6.74,6.74,0,0,0-2.59,2.7,7.79,7.79,0,0,0-.94,4,8.06,8.06,0,0,0,.91,3.93,6.71,6.71,0,0,0,2.59,2.69,8.15,8.15,0,0,0,7.71,0,6.69,6.69,0,0,0,2.58-2.69,8.87,8.87,0,0,0,0-7.89Zm-1.62,7.08a5,5,0,0,1-1.94,2.08,6,6,0,0,1-5.79,0,5.06,5.06,0,0,1-1.94-2.08,7.39,7.39,0,0,1,0-6.28,5.24,5.24,0,0,1,2-2.07,5.51,5.51,0,0,1,2.85-.75,5.62,5.62,0,0,1,2.91.75,5,5,0,0,1,1.94,2.07,7.39,7.39,0,0,1,0,6.28Z"/><polygon class="cls-3" points="156.45 103.77 158.25 103.77 158.25 97.11 165.91 97.11 165.91 95.53 158.25 95.53 158.25 90.57 166.76 90.57 166.76 88.98 156.45 88.98 156.45 103.77"/><polygon class="cls-3" points="175.53 90.57 180.96 90.57 180.96 103.77 182.73 103.77 182.73 90.57 188.12 90.57 188.12 88.98 175.53 88.98 175.53 90.57"/><polygon class="cls-3" points="212.4 101.64 212.35 101.64 208.61 88.94 206.63 88.94 202.87 101.72 202.82 101.72 198.81 88.98 196.93 88.98 201.87 103.88 203.88 103.88 207.58 91.33 207.62 91.33 211.32 103.88 213.34 103.88 218.27 88.98 216.49 88.98 212.4 101.64"/><path class="cls-3" d="M233,89h-2.18l-6,14.79h1.88l1.4-3.59h7.49l1.4,3.59h2Zm-4.23,9.62,3.1-7.87H232L235,98.6Z"/><path class="cls-3" d="M256.8,97.49a.22.22,0,0,1,.14,0,4.69,4.69,0,0,0,1.75-.91,3.53,3.53,0,0,0,1.07-1.43,4.57,4.57,0,0,0,.35-1.86,3.82,3.82,0,0,0-2.42-3.8A7.07,7.07,0,0,0,255,89h-6.33v14.79h1.8v-6h4.07a3.09,3.09,0,0,0,.51,0l3.8,6h2.05Zm-1.91-1.29h-4.45V90.57h4.37a4.41,4.41,0,0,1,2.58.64,2.34,2.34,0,0,1,.92,2.05,2.73,2.73,0,0,1-.89,2.18A4,4,0,0,1,254.89,96.2Z"/><polygon class="cls-3" points="272.86 96.99 280.91 96.99 280.91 95.4 272.86 95.4 272.86 90.57 281.76 90.57 281.76 88.98 271.07 88.98 271.07 103.77 281.9 103.77 281.9 102.19 272.86 102.19 272.86 96.99"/><path class="cls-3" d="M317.36,92.43a6.33,6.33,0,0,0-2.64-2.56,8.36,8.36,0,0,0-4-.89h-5.28v14.79h5.07a9,9,0,0,0,4.15-.89,6.38,6.38,0,0,0,2.69-2.53,8.81,8.81,0,0,0,0-7.92Zm-1.59,7.08a4.66,4.66,0,0,1-2,2,6.5,6.5,0,0,1-3.16.7h-3.39V90.57h3.39a6.65,6.65,0,0,1,3.18.67,4.68,4.68,0,0,1,2,2,6.82,6.82,0,0,1,.67,3.18A6.56,6.56,0,0,1,315.77,99.51Z"/><polygon class="cls-3" points="330.79 96.99 338.84 96.99 338.84 95.4 330.79 95.4 330.79 90.57 339.69 90.57 339.69 88.98 329 88.98 329 103.77 339.84 103.77 339.84 102.19 330.79 102.19 330.79 96.99"/><polygon class="cls-3" points="355.75 101.83 355.68 101.83 350.57 88.98 348.58 88.98 354.61 103.88 356.7 103.88 362.74 88.98 360.8 88.98 355.75 101.83"/><polygon class="cls-3" points="374.25 96.99 382.3 96.99 382.3 95.4 374.25 95.4 374.25 90.57 383.15 90.57 383.15 88.98 372.46 88.98 372.46 103.77 383.3 103.77 383.3 102.19 374.25 102.19 374.25 96.99"/><polygon class="cls-3" points="395.57 88.98 393.78 88.98 393.78 103.77 403.96 103.77 403.96 102.19 395.57 102.19 395.57 88.98"/><path class="cls-3" d="M426.28,92.43a6.86,6.86,0,0,0-2.59-2.7,7.65,7.65,0,0,0-3.88-1,7.53,7.53,0,0,0-3.82,1,6.74,6.74,0,0,0-2.59,2.7,7.89,7.89,0,0,0-.94,4,8.06,8.06,0,0,0,.92,3.93A6.69,6.69,0,0,0,416,103a8.15,8.15,0,0,0,7.71,0,6.69,6.69,0,0,0,2.58-2.69,8.79,8.79,0,0,0,0-7.89Zm-1.62,7.08a4.94,4.94,0,0,1-1.94,2.08,6,6,0,0,1-5.79,0A5.06,5.06,0,0,1,415,99.51a7.39,7.39,0,0,1,0-6.28,5.24,5.24,0,0,1,2-2.07,5.51,5.51,0,0,1,2.85-.75,5.62,5.62,0,0,1,2.91.75,4.91,4.91,0,0,1,1.94,2.07,7.39,7.39,0,0,1,0,6.28Z"/><path class="cls-3" d="M448.53,91.13a3.81,3.81,0,0,0-1.75-1.59A6.4,6.4,0,0,0,444,89h-6.12v14.79h1.81l0-5.12H444a6,6,0,0,0,2.77-.59,4.36,4.36,0,0,0,1.78-1.73,5.37,5.37,0,0,0,.62-2.64A5,5,0,0,0,448.53,91.13Zm-2.13,5.09a3.69,3.69,0,0,1-2.61.84H439.7V90.57h4.09a4,4,0,0,1,2.61.75,3,3,0,0,1,.92,2.43A3.25,3.25,0,0,1,446.4,96.22Z"/><polygon class="cls-3" points="461.21 96.99 469.26 96.99 469.26 95.4 461.21 95.4 461.21 90.57 470.11 90.57 470.11 88.98 459.42 88.98 459.42 103.77 470.26 103.77 470.26 102.19 461.21 102.19 461.21 96.99"/><path class="cls-3" d="M488.89,97.49a.21.21,0,0,1,.13,0,4.61,4.61,0,0,0,1.75-.91,3.47,3.47,0,0,0,1.08-1.43,4.74,4.74,0,0,0,.35-1.86,3.82,3.82,0,0,0-2.42-3.8,7.07,7.07,0,0,0-2.72-.48h-6.33v14.79h1.8v-6h4.07a3.09,3.09,0,0,0,.51,0l3.8,6h2ZM487,96.2h-4.45V90.57h4.37a4.41,4.41,0,0,1,2.58.64,2.34,2.34,0,0,1,.92,2.05,2.66,2.66,0,0,1-.92,2.18A3.83,3.83,0,0,1,487,96.2Z"/></g></g></g></svg>