<svg id="Layer_1" data-name="Layer 1" xmlns="http://www.w3.org/2000/svg" viewBox="0 0 842.06 595.83"><defs><style>.cls-1{opacity:0.5;}.cls-2{fill:#9885af;}.cls-3{fill:#c9dc50;}</style></defs><title>pattern</title><g class="cls-1"><path class="cls-2" d="M107.5,22.42v13L84.81,58.11V-.28h0A22.69,22.69,0,0,1,107.5,22.42Z" transform="translate(0.08 0.28)"/><path class="cls-2" d="M107.5,104.22v35.69h0a22.69,22.69,0,0,1-22.69-22.69V81.53Z" transform="translate(0.08 0.28)"/><path class="cls-2" d="M157.07,110a19.63,19.63,0,0,1,0,27.78l-2.14,2.16L133,118,96.16,81.19,84.81,69.83,96.16,58.46,133,21.64l8-8,13.9-13.9,2.14,2.16a19.63,19.63,0,0,1,0,27.78L116.91,69.83Z" transform="translate(0.08 0.28)"/></g><g class="cls-1"><path class="cls-2" d="M55.23,22.42v13L77.92,58.11V-.28h0A22.69,22.69,0,0,0,55.23,22.42Z" transform="translate(0.08 0.28)"/><path class="cls-2" d="M55.23,104.22v35.69h0a22.68,22.68,0,0,0,22.69-22.69V81.53Z" transform="translate(0.08 0.28)"/><path class="cls-2" d="M5.66,110a19.65,19.65,0,0,0,0,27.78l2.14,2.16L29.73,118,66.58,81.19,77.92,69.83,66.58,58.46,29.73,21.64l-8-8L7.82-.28,5.68,1.88a19.65,19.65,0,0,0,0,27.78L45.83,69.83Z" transform="translate(0.08 0.28)"/></g><g class="cls-1"><path class="cls-3" d="M277.29,22.42v13L254.6,58.11V-.28h0A22.69,22.69,0,0,1,277.29,22.42Z" transform="translate(0.08 0.28)"/><path class="cls-3" d="M277.29,104.22v35.69h0a22.69,22.69,0,0,1-22.69-22.69V81.53Z" transform="translate(0.08 0.28)"/><path class="cls-3" d="M326.86,110a19.63,19.63,0,0,1,0,27.78l-2.14,2.16L302.79,118,266,81.19,254.6,69.83,266,58.46l36.84-36.82,8-8L324.7-.28l2.14,2.16a19.63,19.63,0,0,1,0,27.78L286.7,69.83Z" transform="translate(0.08 0.28)"/></g><g class="cls-1"><path class="cls-3" d="M225,22.42v13l22.69,22.69V-.28h0A22.69,22.69,0,0,0,225,22.42Z" transform="translate(0.08 0.28)"/><path class="cls-3" d="M225,104.22v35.69h0a22.69,22.69,0,0,0,22.69-22.69V81.53Z" transform="translate(0.08 0.28)"/><path class="cls-3" d="M175.45,110a19.65,19.65,0,0,0,0,27.78l2.14,2.16L199.52,118l36.85-36.83,11.34-11.36L236.37,58.46,199.52,21.64l-8-8L177.61-.28l-2.14,2.16a19.65,19.65,0,0,0,0,27.78l40.16,40.17Z" transform="translate(0.08 0.28)"/></g><g class="cls-1"><path class="cls-2" d="M447.08,22.42v13L424.39,58.11V-.28h0A22.69,22.69,0,0,1,447.08,22.42Z" transform="translate(0.08 0.28)"/><path class="cls-2" d="M447.08,104.22v35.69h0a22.69,22.69,0,0,1-22.69-22.69V81.53Z" transform="translate(0.08 0.28)"/><path class="cls-2" d="M496.65,110a19.65,19.65,0,0,1,0,27.78l-2.14,2.16L472.58,118,435.74,81.19,424.39,69.83l11.35-11.37,36.84-36.82,8-8,13.9-13.9,2.14,2.16a19.65,19.65,0,0,1,0,27.78L456.49,69.83Z" transform="translate(0.08 0.28)"/></g><g class="cls-1"><path class="cls-2" d="M394.81,22.42v13L417.5,58.11V-.28h0A22.69,22.69,0,0,0,394.81,22.42Z" transform="translate(0.08 0.28)"/><path class="cls-2" d="M394.81,104.22v35.69h0a22.69,22.69,0,0,0,22.69-22.69V81.53Z" transform="translate(0.08 0.28)"/><path class="cls-2" d="M345.24,110a19.63,19.63,0,0,0,0,27.78l2.14,2.16L369.31,118l36.84-36.83L417.5,69.83,406.15,58.46,369.31,21.64l-8-8L347.4-.28l-2.14,2.16a19.63,19.63,0,0,0,0,27.78L385.4,69.83Z" transform="translate(0.08 0.28)"/></g><g class="cls-1"><path class="cls-3" d="M616.87,22.42v13L594.18,58.11V-.28h0A22.69,22.69,0,0,1,616.87,22.42Z" transform="translate(0.08 0.28)"/><path class="cls-3" d="M616.87,104.22v35.69h0a22.69,22.69,0,0,1-22.69-22.69V81.53Z" transform="translate(0.08 0.28)"/><path class="cls-3" d="M666.44,110a19.65,19.65,0,0,1,0,27.78l-2.14,2.16L642.37,118,605.52,81.19,594.18,69.83l11.34-11.37,36.85-36.82,8-8,13.9-13.9,2.14,2.16a19.65,19.65,0,0,1,0,27.78L626.28,69.83Z" transform="translate(0.08 0.28)"/></g><g class="cls-1"><path class="cls-3" d="M564.6,22.42v13l22.69,22.69V-.28h0A22.69,22.69,0,0,0,564.6,22.42Z" transform="translate(0.08 0.28)"/><path class="cls-3" d="M564.6,104.22v35.69h0a22.69,22.69,0,0,0,22.69-22.69V81.53Z" transform="translate(0.08 0.28)"/><path class="cls-3" d="M515,110a19.63,19.63,0,0,0,0,27.78l2.14,2.16L539.1,118l36.84-36.83,11.35-11.36L575.94,58.46,539.1,21.64l-8-8L517.19-.28l-2.14,2.16a19.63,19.63,0,0,0,0,27.78l40.16,40.17Z" transform="translate(0.08 0.28)"/></g><g class="cls-1"><path class="cls-2" d="M786.66,22.42v13L764,58.11V-.28h0A22.69,22.69,0,0,1,786.66,22.42Z" transform="translate(0.08 0.28)"/><path class="cls-2" d="M786.66,104.22v35.69h0A22.68,22.68,0,0,1,764,117.22V81.53Z" transform="translate(0.08 0.28)"/><path class="cls-2" d="M836.23,110a19.65,19.65,0,0,1,0,27.78l-2.14,2.16L812.16,118,775.31,81.19,764,69.83l11.34-11.37,36.85-36.82,8-8,13.9-13.9,2.14,2.16a19.65,19.65,0,0,1,0,27.78L796.06,69.83Z" transform="translate(0.08 0.28)"/></g><g class="cls-1"><path class="cls-2" d="M734.39,22.42v13l22.69,22.69V-.28h0A22.69,22.69,0,0,0,734.39,22.42Z" transform="translate(0.08 0.28)"/><path class="cls-2" d="M734.39,104.22v35.69h0a22.69,22.69,0,0,0,22.69-22.69V81.53Z" transform="translate(0.08 0.28)"/><path class="cls-2" d="M684.82,110a19.63,19.63,0,0,0,0,27.78l2.14,2.16L708.89,118l36.84-36.83,11.35-11.36L745.73,58.46,708.89,21.64l-8-8L687-.28l-2.14,2.16a19.63,19.63,0,0,0,0,27.78L725,69.83Z" transform="translate(0.08 0.28)"/></g><g class="cls-1"><path class="cls-3" d="M107.5,174.29v13L84.81,210V151.6h0A22.69,22.69,0,0,1,107.5,174.29Z" transform="translate(0.08 0.28)"/><path class="cls-3" d="M107.5,256.09v35.7h0A22.69,22.69,0,0,1,84.81,269.1V233.4Z" transform="translate(0.08 0.28)"/><path class="cls-3" d="M157.07,261.86a19.64,19.64,0,0,1,0,27.79l-2.14,2.15L133,269.89,96.16,233.06,84.81,221.7l11.35-11.36L133,173.51l8-8,13.9-13.9,2.14,2.16a19.63,19.63,0,0,1,0,27.78L116.91,221.7Z" transform="translate(0.08 0.28)"/></g><g class="cls-1"><path class="cls-3" d="M55.23,174.29v13L77.92,210V151.6h0A22.69,22.69,0,0,0,55.23,174.29Z" transform="translate(0.08 0.28)"/><path class="cls-3" d="M55.23,256.09v35.7h0A22.69,22.69,0,0,0,77.92,269.1V233.4Z" transform="translate(0.08 0.28)"/><path class="cls-3" d="M5.66,261.86a19.66,19.66,0,0,0,0,27.79l2.14,2.15,21.91-21.91,36.85-36.83L77.92,221.7,66.58,210.34,29.73,173.51l-8-8L7.82,151.6l-2.14,2.16a19.65,19.65,0,0,0,0,27.78L45.83,221.7Z" transform="translate(0.08 0.28)"/></g><g class="cls-1"><path class="cls-2" d="M277.29,174.29v13L254.6,210V151.6h0A22.69,22.69,0,0,1,277.29,174.29Z" transform="translate(0.08 0.28)"/><path class="cls-2" d="M277.29,256.09v35.7h0A22.69,22.69,0,0,1,254.6,269.1V233.4Z" transform="translate(0.08 0.28)"/><path class="cls-2" d="M326.86,261.86a19.64,19.64,0,0,1,0,27.79l-2.14,2.15-21.91-21.91L266,233.06,254.6,221.7,266,210.34l36.84-36.83,8-8,13.9-13.9,2.14,2.16a19.63,19.63,0,0,1,0,27.78L286.7,221.7Z" transform="translate(0.08 0.28)"/></g><g class="cls-1"><path class="cls-2" d="M225,174.29v13L247.71,210V151.6h0A22.69,22.69,0,0,0,225,174.29Z" transform="translate(0.08 0.28)"/><path class="cls-2" d="M225,256.09v35.7h0a22.69,22.69,0,0,0,22.69-22.69V233.4Z" transform="translate(0.08 0.28)"/><path class="cls-2" d="M175.45,261.86a19.66,19.66,0,0,0,0,27.79l2.14,2.15,21.91-21.91,36.85-36.83,11.34-11.36-11.34-11.36-36.85-36.83-8-8-13.9-13.9-2.14,2.16a19.65,19.65,0,0,0,0,27.78l40.16,40.16Z" transform="translate(0.08 0.28)"/></g><g class="cls-1"><path class="cls-2" d="M447.08,174.29v13L424.39,210V151.6h0A22.69,22.69,0,0,1,447.08,174.29Z" transform="translate(0.08 0.28)"/><path class="cls-2" d="M447.08,256.09v35.7h0a22.69,22.69,0,0,1-22.69-22.69V233.4Z" transform="translate(0.08 0.28)"/><path class="cls-2" d="M496.65,261.86a19.66,19.66,0,0,1,0,27.79l-2.14,2.15-21.91-21.91-36.84-36.83L424.39,221.7l11.35-11.36,36.84-36.83,8-8,13.9-13.9,2.14,2.16a19.65,19.65,0,0,1,0,27.78L456.49,221.7Z" transform="translate(0.08 0.28)"/></g><g class="cls-1"><path class="cls-2" d="M394.81,174.29v13L417.5,210V151.6h0A22.69,22.69,0,0,0,394.81,174.29Z" transform="translate(0.08 0.28)"/><path class="cls-2" d="M394.81,256.09v35.7h0A22.69,22.69,0,0,0,417.5,269.1V233.4Z" transform="translate(0.08 0.28)"/><path class="cls-2" d="M345.24,261.86a19.64,19.64,0,0,0,0,27.79l2.14,2.15,21.91-21.91,36.84-36.83L417.5,221.7l-11.35-11.36-36.84-36.83-8-8-13.9-13.9-2.14,2.16a19.63,19.63,0,0,0,0,27.78L385.4,221.7Z" transform="translate(0.08 0.28)"/></g><g class="cls-1"><path class="cls-2" d="M616.87,174.29v13L594.18,210V151.6h0A22.69,22.69,0,0,1,616.87,174.29Z" transform="translate(0.08 0.28)"/><path class="cls-2" d="M616.87,256.09v35.7h0a22.69,22.69,0,0,1-22.69-22.69V233.4Z" transform="translate(0.08 0.28)"/><path class="cls-2" d="M666.44,261.86a19.66,19.66,0,0,1,0,27.79l-2.14,2.15-21.91-21.91-36.85-36.83L594.18,221.7l11.34-11.36,36.85-36.83,8-8,13.9-13.9,2.14,2.16a19.65,19.65,0,0,1,0,27.78L626.28,221.7Z" transform="translate(0.08 0.28)"/></g><g class="cls-1"><path class="cls-2" d="M564.6,174.29v13L587.29,210V151.6h0A22.69,22.69,0,0,0,564.6,174.29Z" transform="translate(0.08 0.28)"/><path class="cls-2" d="M564.6,256.09v35.7h0a22.69,22.69,0,0,0,22.69-22.69V233.4Z" transform="translate(0.08 0.28)"/><path class="cls-2" d="M515,261.86a19.64,19.64,0,0,0,0,27.79l2.14,2.15,21.91-21.91,36.84-36.83,11.35-11.36-11.35-11.36L539.1,173.51l-8-8-13.9-13.9-2.14,2.16a19.63,19.63,0,0,0,0,27.78l40.16,40.16Z" transform="translate(0.08 0.28)"/></g><g class="cls-1"><path class="cls-2" d="M107.5,326.16v13L84.81,361.86V303.47h0A22.69,22.69,0,0,1,107.5,326.16Z" transform="translate(0.08 0.28)"/><path class="cls-2" d="M107.5,408v35.69h0A22.69,22.69,0,0,1,84.81,421V385.28Z" transform="translate(0.08 0.28)"/><path class="cls-2" d="M157.07,413.74a19.63,19.63,0,0,1,0,27.78l-2.14,2.16L133,421.77,96.16,384.94,84.81,373.58l11.35-11.37L133,325.38l8-8,13.9-13.9,2.14,2.16a19.63,19.63,0,0,1,0,27.78l-40.16,40.17Z" transform="translate(0.08 0.28)"/></g><g class="cls-1"><path class="cls-2" d="M55.23,326.16v13l22.69,22.69V303.47h0A22.69,22.69,0,0,0,55.23,326.16Z" transform="translate(0.08 0.28)"/><path class="cls-2" d="M55.23,408v35.69h0A22.69,22.69,0,0,0,77.92,421V385.28Z" transform="translate(0.08 0.28)"/><path class="cls-2" d="M5.66,413.74a19.65,19.65,0,0,0,0,27.78l2.14,2.16,21.91-21.91,36.85-36.83,11.34-11.36L66.58,362.21,29.73,325.38l-8-8-13.9-13.9-2.14,2.16a19.65,19.65,0,0,0,0,27.78l40.17,40.17Z" transform="translate(0.08 0.28)"/></g><g class="cls-1"><path class="cls-3" d="M277.29,326.16v13L254.6,361.86V303.47h0A22.69,22.69,0,0,1,277.29,326.16Z" transform="translate(0.08 0.28)"/><path class="cls-3" d="M277.29,408v35.69h0A22.69,22.69,0,0,1,254.6,421V385.28Z" transform="translate(0.08 0.28)"/><path class="cls-3" d="M326.86,413.74a19.63,19.63,0,0,1,0,27.78l-2.14,2.16-21.91-21.91L266,384.94,254.6,373.58,266,362.21l36.84-36.83,8-8,13.9-13.9,2.14,2.16a19.63,19.63,0,0,1,0,27.78L286.7,373.58Z" transform="translate(0.08 0.28)"/></g><g class="cls-1"><path class="cls-3" d="M225,326.16v13l22.69,22.69V303.47h0A22.69,22.69,0,0,0,225,326.16Z" transform="translate(0.08 0.28)"/><path class="cls-3" d="M225,408v35.69h0A22.69,22.69,0,0,0,247.71,421V385.28Z" transform="translate(0.08 0.28)"/><path class="cls-3" d="M175.45,413.74a19.65,19.65,0,0,0,0,27.78l2.14,2.16,21.91-21.91,36.85-36.83,11.34-11.36-11.34-11.37-36.85-36.83-8-8-13.9-13.9-2.14,2.16a19.65,19.65,0,0,0,0,27.78l40.16,40.17Z" transform="translate(0.08 0.28)"/></g><g class="cls-1"><path class="cls-2" d="M447.08,326.16v13l-22.69,22.69V303.47h0A22.69,22.69,0,0,1,447.08,326.16Z" transform="translate(0.08 0.28)"/><path class="cls-2" d="M447.08,408v35.69h0A22.69,22.69,0,0,1,424.39,421V385.28Z" transform="translate(0.08 0.28)"/><path class="cls-2" d="M496.65,413.74a19.65,19.65,0,0,1,0,27.78l-2.14,2.16-21.91-21.91-36.84-36.83-11.35-11.36,11.35-11.37,36.84-36.83,8-8,13.9-13.9,2.14,2.16a19.65,19.65,0,0,1,0,27.78l-40.16,40.17Z" transform="translate(0.08 0.28)"/></g><g class="cls-1"><path class="cls-2" d="M394.81,326.16v13l22.69,22.69V303.47h0A22.69,22.69,0,0,0,394.81,326.16Z" transform="translate(0.08 0.28)"/><path class="cls-2" d="M394.81,408v35.69h0A22.69,22.69,0,0,0,417.5,421V385.28Z" transform="translate(0.08 0.28)"/><path class="cls-2" d="M345.24,413.74a19.63,19.63,0,0,0,0,27.78l2.14,2.16,21.91-21.91,36.84-36.83,11.35-11.36-11.35-11.37-36.84-36.83-8-8-13.9-13.9-2.14,2.16a19.63,19.63,0,0,0,0,27.78l40.16,40.17Z" transform="translate(0.08 0.28)"/></g><g class="cls-1"><path class="cls-2" d="M107.5,478v13L84.81,513.74V455.35h0A22.69,22.69,0,0,1,107.5,478Z" transform="translate(0.08 0.28)"/><path class="cls-2" d="M107.5,559.84v35.7h0a22.69,22.69,0,0,1-22.69-22.69v-35.7Z" transform="translate(0.08 0.28)"/><path class="cls-2" d="M157.07,565.61a19.64,19.64,0,0,1,0,27.79l-2.14,2.15L133,573.64,96.16,536.81,84.81,525.45l11.35-11.36L133,477.26l8-8,13.9-13.9,2.14,2.15a19.64,19.64,0,0,1,0,27.79l-40.16,40.16Z" transform="translate(0.08 0.28)"/></g><g class="cls-1"><path class="cls-2" d="M55.23,478v13l22.69,22.69V455.35h0A22.69,22.69,0,0,0,55.23,478Z" transform="translate(0.08 0.28)"/><path class="cls-2" d="M55.23,559.84v35.7h0a22.69,22.69,0,0,0,22.69-22.69v-35.7Z" transform="translate(0.08 0.28)"/><path class="cls-2" d="M5.66,565.61a19.66,19.66,0,0,0,0,27.79l2.14,2.15,21.91-21.91,36.85-36.83,11.34-11.36L66.58,514.09,29.73,477.26l-8-8-13.9-13.9L5.68,457.5a19.66,19.66,0,0,0,0,27.79l40.17,40.16Z" transform="translate(0.08 0.28)"/></g></svg>