<svg xmlns="http://www.w3.org/2000/svg" viewBox="0 0 57.3 26.57"><defs><style>.cls-1{fill:#fff;}.cls-2{fill:#eaeaea;}.cls-3{fill:none;stroke:#fff;stroke-linecap:round;stroke-miterlimit:10;}</style></defs><title>Asset 4</title><g id="Layer_2" data-name="Layer 2"><g id="Layer_1-2" data-name="Layer 1"><path class="cls-1" d="M20.87,4.32H5.63V19.56a1.63,1.63,0,0,0,1.63,1.63H20.87a1.63,1.63,0,0,0,1.63-1.63V6A1.63,1.63,0,0,0,20.87,4.32ZM10.13,19.51a2.25,2.25,0,1,1,2.24-2.25A2.25,2.25,0,0,1,10.13,19.51Zm7.87,0a2.25,2.25,0,1,1,2.25-2.25A2.25,2.25,0,0,1,18,19.51Z"/><path class="cls-2" d="M20.79,13.32H7.33A1.7,1.7,0,0,0,5.63,15v4.46a1.7,1.7,0,0,0,1.7,1.7H20.79a1.7,1.7,0,0,0,1.71-1.7V15A1.7,1.7,0,0,0,20.79,13.32ZM10.13,19.51a2.25,2.25,0,1,1,2.24-2.25A2.25,2.25,0,0,1,10.13,19.51Zm7.87,0a2.25,2.25,0,1,1,2.25-2.25A2.25,2.25,0,0,1,18,19.51Z"/><path class="cls-1" d="M0,8.82H6.75V4.32h-4A2.77,2.77,0,0,0,0,7.09Z"/><path class="cls-1" d="M34.66,9.05a4.64,4.64,0,0,1-1.88-.36,4,4,0,0,1-1.39-1,4.41,4.41,0,0,1-.87-1.44,5.18,5.18,0,0,1-.29-1.72,4.89,4.89,0,0,1,.33-1.83,4.21,4.21,0,0,1,.93-1.43A4,4,0,0,1,32.92.34,4.68,4.68,0,0,1,34.74,0a4.44,4.44,0,0,1,1.15.13,4.33,4.33,0,0,1,.83.3,1.48,1.48,0,0,1,.41.25l-.59,1.2a2.58,2.58,0,0,0-.8-.46,3.07,3.07,0,0,0-1.11-.18,2.8,2.8,0,0,0-1.49.4A2.9,2.9,0,0,0,32.08,2.8a3.72,3.72,0,0,0-.39,1.76A3.82,3.82,0,0,0,32,6.2a2.78,2.78,0,0,0,1,1.18,2.71,2.71,0,0,0,1.59.44,3.83,3.83,0,0,0,1-.13,4.25,4.25,0,0,0,1-.47L37,8.36a1.9,1.9,0,0,1-.52.31,4.58,4.58,0,0,1-.86.27A4.79,4.79,0,0,1,34.66,9.05Z"/><path class="cls-1" d="M40.26,9.08a2.7,2.7,0,0,1-2.38-1.34,3,3,0,0,1-.38-1.55,3.29,3.29,0,0,1,.33-1.51,2.41,2.41,0,0,1,.94-1,2.75,2.75,0,0,1,1.44-.36,2.54,2.54,0,0,1,1.62.6,1.36,1.36,0,0,1,.37.47l0-.92h1.23V9H42.24l0-1a1.59,1.59,0,0,1-.41.52,2.23,2.23,0,0,1-.67.41A2.3,2.3,0,0,1,40.26,9.08ZM40.48,8a1.63,1.63,0,0,0,.81-.21,1.5,1.5,0,0,0,.58-.59,1.78,1.78,0,0,0,.23-.91V6.2a1.9,1.9,0,0,0-.23-.94,1.58,1.58,0,0,0-.58-.62,1.54,1.54,0,0,0-.81-.22,1.45,1.45,0,0,0-1.21.51,2,2,0,0,0-.4,1.27,2,2,0,0,0,.4,1.29A1.45,1.45,0,0,0,40.48,8Z"/><path class="cls-1" d="M45,9V3.46h1.3V4.54a1.93,1.93,0,0,1,.61-.89,1.6,1.6,0,0,1,1-.34,1.47,1.47,0,0,1,.53.07l-.18,1.31a1,1,0,0,0-.47-.07,1.74,1.74,0,0,0-.64.13,1.33,1.33,0,0,0-.6.46,1.55,1.55,0,0,0-.24.92V9Z"/><path class="cls-1" d="M49.82,9V4.51h-1v-1h1V1.21L51.13.92V3.46H52.4v1H51.13V9Z"/><path class="cls-1" d="M37.12,23.36,32,17.65l0,1v4.75H30.65V14.53h.17L36,20.32l0-1V14.54H37.3v8.82Z"/><path class="cls-1" d="M39.68,16.82a.81.81,0,0,1-.61-.25.83.83,0,0,1-.25-.62.76.76,0,0,1,.25-.58.91.91,0,0,1,1.23,0,.76.76,0,0,1,.25.58.83.83,0,0,1-.25.62A.81.81,0,0,1,39.68,16.82ZM39,23.36v-5.5h1.35v5.5Z"/><path class="cls-1" d="M41.9,23.36v-5.5h1.28v1a2,2,0,0,1,.7-.82,2.41,2.41,0,0,1,2.5,0,1.78,1.78,0,0,1,.6,1,7.34,7.34,0,0,1,.15,1.59v2.65h-1.3V20.75a4.32,4.32,0,0,0-.19-1.47.81.81,0,0,0-.85-.5,1.34,1.34,0,0,0-.72.22,1.78,1.78,0,0,0-.63.62,1.87,1.87,0,0,0-.25,1v2.73Z"/><path class="cls-1" d="M48,26.29a3.86,3.86,0,0,1-1-.13L47.27,25l.37.13a1.21,1.21,0,0,0,.34.05,1,1,0,0,0,.4-.08.54.54,0,0,0,.25-.31,2.11,2.11,0,0,0,.09-.71V17.86H50v6.28a2.21,2.21,0,0,1-.55,1.61A2.06,2.06,0,0,1,48,26.29Zm1.39-9.47a.81.81,0,0,1-.61-.25.83.83,0,0,1-.25-.62.76.76,0,0,1,.25-.58.91.91,0,0,1,1.23,0,.76.76,0,0,1,.25.58.83.83,0,0,1-.25.62A.81.81,0,0,1,49.34,16.82Z"/><path class="cls-1" d="M54.1,23.48a2.81,2.81,0,0,1-1.37-.34,2.77,2.77,0,0,1-1-1,3,3,0,0,1-.38-1.55,3.29,3.29,0,0,1,.33-1.51,2.46,2.46,0,0,1,.93-1,2.81,2.81,0,0,1,1.45-.36,2.32,2.32,0,0,1,.92.18,2.36,2.36,0,0,1,.69.42,1.29,1.29,0,0,1,.38.47l0-.92H57.3v5.5H56.08l0-1a1.55,1.55,0,0,1-.4.52,2.28,2.28,0,0,1-.68.41A2.21,2.21,0,0,1,54.1,23.48Zm.21-1.08a1.58,1.58,0,0,0,.81-.21,1.52,1.52,0,0,0,.59-.59,1.78,1.78,0,0,0,.22-.91V20.6a1.89,1.89,0,0,0-.22-.94,1.6,1.6,0,0,0-.59-.62,1.49,1.49,0,0,0-.81-.22,1.43,1.43,0,0,0-1.2.51,2.2,2.2,0,0,0,0,2.56A1.43,1.43,0,0,0,54.31,22.4Z"/><line class="cls-3" x1="26.25" y1="0.57" x2="26.25" y2="26.07"/></g></g></svg>